<svg width="204" height="32" viewBox="0 0 204 32" fill="none" xmlns="http://www.w3.org/2000/svg">
<path d="M140.44 23V6.2H148.216C149.72 6.2 150.912 6.584 151.792 7.352C152.672 8.12 153.112 9.224 153.112 10.664C153.112 12.52 152.4 13.816 150.976 14.552C152.56 15.272 153.352 16.6 153.352 18.536C153.352 19.976 152.912 21.08 152.032 21.848C151.152 22.616 149.96 23 148.456 23H140.44ZM144.16 16.208V19.76H147.808C148.944 19.76 149.512 19.176 149.512 18.008C149.512 16.808 148.944 16.208 147.808 16.208H144.16ZM144.16 9.44V12.968H147.568C148.704 12.968 149.272 12.376 149.272 11.192C149.272 10.024 148.704 9.44 147.568 9.44H144.16ZM155.745 23V6.2H159.465V19.76H167.457V23H155.745ZM178.817 17.144V12.056C178.817 11.128 178.553 10.424 178.025 9.944C177.497 9.448 176.777 9.2 175.865 9.2C174.937 9.2 174.201 9.448 173.657 9.944C173.129 10.424 172.865 11.128 172.865 12.056V17.144C172.865 18.072 173.129 18.784 173.657 19.28C174.185 19.76 174.905 20 175.817 20C176.745 20 177.473 19.76 178.001 19.28C178.545 18.784 178.817 18.072 178.817 17.144ZM182.537 12.056V17.144C182.537 19.128 181.937 20.64 180.737 21.68C179.537 22.72 177.897 23.24 175.817 23.24C173.753 23.24 172.121 22.72 170.921 21.68C169.737 20.624 169.145 19.112 169.145 17.144V12.056C169.145 10.072 169.745 8.56 170.945 7.52C172.145 6.48 173.785 5.96 175.865 5.96C177.929 5.96 179.553 6.488 180.737 7.544C181.937 8.584 182.537 10.088 182.537 12.056ZM191.062 16.928V13.688H198.334V17.768C198.334 19.64 197.742 21.024 196.558 21.92C195.374 22.8 193.742 23.24 191.662 23.24C189.55 23.24 187.902 22.728 186.718 21.704C185.534 20.664 184.942 19.104 184.942 17.024V12.176C184.942 10.096 185.534 8.544 186.718 7.52C187.902 6.48 189.55 5.96 191.662 5.96C193.742 5.96 195.374 6.408 196.558 7.304C197.742 8.184 198.334 9.56 198.334 11.432V11.72H194.614V11.432C194.614 9.944 193.63 9.2 191.662 9.2C189.662 9.2 188.662 10.192 188.662 12.176V17.024C188.662 19.008 189.662 20 191.662 20C193.63 20 194.614 19.256 194.614 17.768V16.928H191.062Z" fill="#F0AD1C"/>
<path d="M31.5538 4.83338C31.3344 3.29786 29.9556 1.95035 28.5141 1.825L8.05085 0.00744495C6.60934 -0.117904 5.51253 1.35495 5.66922 3.26652L7.45544 27.8976C7.58079 29.8092 8.95963 31.188 10.4952 30.9373L32.0239 26.9262C33.5594 26.6755 34.6248 25.2339 34.4055 23.7298L31.5538 4.83338ZM31.6165 26.3307L10.6832 30.1226C9.24166 30.3419 8.20753 29.3391 8.08218 27.5216L6.3273 3.61123C6.20195 1.79367 6.98538 0.696862 8.36422 0.822211L28.3261 2.48309C29.7049 2.60844 30.7077 3.57989 30.9271 5.05274L33.6221 23.6357C33.8414 25.0773 33.058 26.1427 31.6165 26.3307Z" fill="#1B3D6E"/>
<path d="M13.6915 20.0006L8.64624 20.3767L9.30432 29.1824L14.4436 28.4303L13.6915 20.0006Z" fill="#27B34B"/>
<path d="M19.0503 12.699L14.0364 12.7617L15.4466 28.1796L20.5545 27.2395L19.0503 12.699Z" fill="#F26222"/>
<path d="M24.4088 7.59105L19.4575 7.4657L21.5571 26.9575L26.6651 26.1114L24.4088 7.59105Z" fill="#EEAD1F"/>
<path d="M29.7989 4.0186L24.8789 3.67389L27.6679 25.986L32.8072 25.1713L29.7989 4.0186Z" fill="#1A73BA"/>
<path d="M1 31L18.5175 12.4483L26.7906 15.6134L35.0009 6.3689L27.574 17.5563L18.7996 14.83L1 31Z" fill="#1C3C6B" stroke="white" stroke-width="0.5" stroke-miterlimit="10"/>
<path d="M37.3826 22.915V12.4796C37.3826 10.5994 37.978 9.1579 39.1688 8.15511C40.3596 7.15231 41.9892 6.68225 44.0574 6.68225C46.1257 6.68225 47.7239 7.18365 48.9147 8.18644C50.1055 9.18923 50.7009 10.6307 50.7009 12.511V22.9463H47.0031V17.6816H41.0804V22.915H37.3826ZM41.0804 14.5792H47.0031V12.4483C47.0031 11.5709 46.7524 10.8814 46.2197 10.4114C45.6869 9.94133 44.9662 9.72197 44.0574 9.72197C43.1173 9.72197 42.3965 9.94133 41.8638 10.4114C41.3311 10.8814 41.049 11.5395 41.049 12.4483V14.5792H41.0804Z" fill="#183F6F"/>
<path d="M69.2839 22.915V12.4796C69.2839 10.5994 69.8793 9.1579 71.0702 8.15511C72.261 7.15231 73.8905 6.68225 75.9588 6.68225C78.027 6.68225 79.6252 7.18365 80.816 8.18644C82.0069 9.18923 82.6023 10.6307 82.6023 12.511V22.9463H78.9045V17.6816H72.9817V22.915H69.2839ZM72.9817 14.5792H78.9045V12.4483C78.9045 11.5709 78.6538 10.8814 78.121 10.4114C77.5883 9.94133 76.8676 9.72197 75.9588 9.72197C75.0187 9.72197 74.2979 9.94133 73.7652 10.4114C73.2324 10.8814 72.9504 11.5395 72.9504 12.4483V14.5792H72.9817Z" fill="#183F6F"/>
<path d="M66.9022 16.9922C66.9022 18.9038 66.3068 20.3766 65.1473 21.3794C63.9879 22.3822 62.3896 22.8836 60.3841 22.8836H53.2705V6.61957H60.4154C62.421 6.61957 63.9879 7.12097 65.1473 8.1551C66.3068 9.15789 66.8709 10.6307 66.8709 12.5423V16.9922H66.9022ZM63.2984 12.5423C63.2984 11.6335 63.0477 10.9441 62.5463 10.4741C62.0449 10.004 61.3242 9.75329 60.4467 9.75329H56.9056V19.7499H60.4154C61.3242 19.7499 62.0136 19.4992 62.5463 19.0291C63.0791 18.5591 63.3298 17.8696 63.3298 16.9609V12.5423H63.2984Z" fill="#183F6F"/>
<path d="M83.9812 6.65094H87.867L90.562 16.8042L93.2884 6.65094H96.8295L92.4736 22.8836H88.3057L83.9812 6.65094Z" fill="#183F6F"/>
<path d="M118.483 17.0235V17.1489C118.483 19.0291 117.919 20.4393 116.791 21.4108C115.663 22.3822 114.128 22.8836 112.153 22.8836C110.21 22.8836 108.675 22.3822 107.547 21.4108C106.419 20.4393 105.854 18.9978 105.854 17.1489V12.3543C105.854 10.4741 106.419 9.06387 107.547 8.09242C108.675 7.12096 110.21 6.61957 112.185 6.61957C114.128 6.61957 115.663 7.12096 116.791 8.09242C117.919 9.06387 118.483 10.5054 118.483 12.3543V12.4796H114.974V12.3543C114.974 11.4768 114.723 10.8188 114.222 10.3487C113.72 9.87865 113.062 9.65928 112.185 9.65928C111.307 9.65928 110.618 9.87865 110.116 10.3487C109.615 10.8188 109.364 11.4768 109.364 12.3543V17.1489C109.364 18.0263 109.615 18.6844 110.116 19.1545C110.618 19.6245 111.276 19.8439 112.153 19.8439C113.031 19.8439 113.72 19.6245 114.222 19.1545C114.723 18.6844 114.974 18.0263 114.974 17.1489V17.0235H118.483Z" fill="#183F6F"/>
<path d="M127.665 22.915C125.66 22.915 124.093 22.4136 122.933 21.3795C121.774 20.3767 121.21 18.9038 121.21 16.9922V12.5423C121.21 10.6308 121.805 9.15792 122.965 8.15513C124.124 7.15234 125.722 6.65094 127.728 6.65094H132.146V9.78467H127.728C126.819 9.78467 126.13 10.0354 125.597 10.5054C125.064 10.9755 124.814 11.6649 124.814 12.5737V13.2318H129.044V16.3655H124.814V17.0236C124.814 17.9324 125.064 18.5904 125.566 19.0918C126.067 19.5619 126.788 19.8126 127.665 19.8126H132.115V22.9463H127.665V22.915Z" fill="#183F6F"/>
<path d="M103.159 6.65094H99.3677V22.915H103.159V6.65094Z" fill="#183F6F"/>
</svg>
