<?xml version="1.0" encoding="utf-8"?>
<!-- Generator: Adobe Illustrator 25.2.3, SVG Export Plug-In . SVG Version: 6.00 Build 0)  -->
<svg version="1.1" id="Capa_1" xmlns="http://www.w3.org/2000/svg" xmlns:xlink="http://www.w3.org/1999/xlink" x="0px" y="0px"
	 viewBox="0 0 490.7 490.7" style="enable-background:new 0 0 490.7 490.7;" xml:space="preserve">
<style type="text/css">
	.st0{fill:#133F6F;stroke:#133F6F;stroke-width:40;stroke-miterlimit:10;}
</style>
<path class="st0" d="M121.2,39.7l227.1,206.9L121.2,453.5c-4.1,3.9-4,10,0.3,13.8c4.1,3.7,10.7,3.7,14.8,0L371,253.5
	c4.2-3.8,4.2-9.9,0-13.8L136.3,26c-4.1-3.9-10.8-3.9-15.1-0.2c-4.2,3.8-4.4,9.9-0.3,13.8C121,39.5,121.1,39.6,121.2,39.7L121.2,39.7
	z"/>
<path class="st0" d="M374.1,245.6c0,2.6-1.1,5-3.1,6.8L136.3,466.2c-4.2,3.8-11,3.7-15.1-0.2c-4-3.8-4-9.7,0-13.5l227.1-206.9
	L121.2,38.7c-4.2-3.8-4.4-9.9-0.3-13.8s10.8-3.9,15.1-0.2c0.1,0.1,0.2,0.2,0.3,0.2L371,238.7C372.9,240.5,374.1,243,374.1,245.6z"/>
</svg>
