<?xml version="1.0" encoding="utf-8"?>
<!-- Generator: Adobe Illustrator 25.2.3, SVG Export Plug-In . SVG Version: 6.00 Build 0)  -->
<svg version="1.1" id="Capa_1" xmlns="http://www.w3.org/2000/svg" xmlns:xlink="http://www.w3.org/1999/xlink" x="0px" y="0px"
	 viewBox="0 0 490.7 490.7" style="enable-background:new 0 0 490.7 490.7;" xml:space="preserve">
<style type="text/css">
	.st0{fill:#133F6F;stroke:#133F6F;stroke-width:40;stroke-miterlimit:10;}
</style>
<path class="st0" d="M452.3,120.5L245.4,347.6L38.5,120.5c-3.9-4.1-10-4-13.8,0.3c-3.7,4.1-3.7,10.7,0,14.8l213.8,234.7
	c3.8,4.2,9.9,4.2,13.8,0L466,135.6c3.9-4.1,3.9-10.8,0.2-15.1c-3.8-4.2-9.9-4.4-13.8-0.3C452.5,120.3,452.4,120.4,452.3,120.5
	L452.3,120.5z"/>
<path class="st0" d="M246.4,373.4c-2.6,0-5-1.1-6.8-3.1L25.8,135.6c-3.8-4.2-3.7-11,0.2-15.1c3.8-4,9.7-4,13.5,0l206.9,227.1
	l206.9-227.1c3.8-4.2,9.9-4.4,13.8-0.3s3.9,10.8,0.2,15.1c-0.1,0.1-0.2,0.2-0.2,0.3L253.3,370.3C251.5,372.2,249,373.4,246.4,373.4z
	"/>
</svg>
