<?xml version="1.0" encoding="utf-8"?>
<!-- Generator: Adobe Illustrator 25.2.3, SVG Export Plug-In . SVG Version: 6.00 Build 0)  -->
<svg version="1.1" id="Слой_1" xmlns="http://www.w3.org/2000/svg" xmlns:xlink="http://www.w3.org/1999/xlink" x="0px" y="0px"
	 viewBox="0 0 95 95" style="enable-background:new 0 0 95 95;" xml:space="preserve">
<style type="text/css">
	.st0{display:none;}
	.st1{fill:none;stroke:#133F6F;stroke-width:3;stroke-miterlimit:10;}
	.st2{fill:#F0AD1C;stroke:#F0AD1C;stroke-miterlimit:10;}
	.st3{fill:#133F6F;stroke:#133F6F;stroke-miterlimit:10;}
</style>
<g id="Слой_1_2_">
	<g id="Слой_1_1_" class="st0">
		
			<image style="display:inline;overflow:visible;enable-background:new    ;" width="95" height="95" xlink:href="../../../../my files/cog.png" >
		</image>
	</g>
	<g id="Слой_2_1_">
		<path class="st1" d="M93.6,47.6c0,25.4-20.6,46-46.1,46s-46-20.6-46-46s20.6-46,46-46c7.7,0,15,1.9,21.4,5.2
			c4.8,2.5,9,5.8,12.6,9.7c3.2,3.5,5.9,7.5,7.9,11.9C92.1,34.2,93.6,40.7,93.6,47.6z"/>
	</g>
</g>
<g>
	<g>
		<path class="st2" d="M59.2,66.2h13.2c1.2,0,2.1-1,2.1-2.1v-3.4c0-1.2-1-2.1-2.1-2.1H59.2c-1.2,0-2.1,1-2.1,2.1v3.4
			C57.1,65.3,58.1,66.2,59.2,66.2z M58.9,60.7c0-0.2,0.1-0.3,0.3-0.3h13.2c0.2,0,0.3,0.1,0.3,0.3v3.4c0,0.2-0.1,0.3-0.3,0.3H59.2
			c-0.2,0-0.3-0.1-0.3-0.3V60.7z"/>
		<path class="st3" d="M71.7,33.7c1.6,0,2.9-1.3,2.9-2.9S73.3,28,71.7,28c-1.6,0-2.9,1.3-2.9,2.9S70.1,33.7,71.7,33.7z M71.7,29.8
			c0.6,0,1,0.5,1,1c0,0.6-0.5,1-1,1c-0.6,0-1-0.5-1-1C70.6,30.3,71.1,29.8,71.7,29.8z"/>
		<path class="st3" d="M66.7,30.9c0-1.6-1.3-2.9-2.9-2.9c-1.6,0-2.9,1.3-2.9,2.9c0,1.6,1.3,2.9,2.9,2.9
			C65.4,33.7,66.7,32.5,66.7,30.9z M62.8,30.9c0-0.6,0.5-1,1-1c0.6,0,1,0.5,1,1s-0.5,1-1,1C63.3,31.9,62.8,31.5,62.8,30.9z"/>
		<path class="st3" d="M75.1,24.1H29.3c-0.5,0-0.9,0.4-0.9,0.9c0,0.5,0.4,0.9,0.9,0.9h45.8c0.8,0,1.5,0.7,1.5,1.5v8.4h-6.9
			c-0.5,0-0.9,0.4-0.9,0.9s0.4,0.9,0.9,0.9h6.9v29.9c0,0.8-0.7,1.5-1.5,1.5H47.5c-0.5,0-0.9,0.4-0.9,0.9s0.4,0.9,0.9,0.9h27.6
			c1.8,0,3.4-1.5,3.4-3.4V27.5C78.5,25.6,77,24.1,75.1,24.1L75.1,24.1z"/>
		<path class="st3" d="M43.3,69.1H19.9c-0.8,0-1.5-0.7-1.5-1.5V37.7h47.2c0.5,0,0.9-0.4,0.9-0.9s-0.4-0.9-0.9-0.9H18.4v-8.4
			c0-0.8,0.7-1.5,1.5-1.5h5.2c0.5,0,0.9-0.4,0.9-0.9s-0.4-0.9-0.9-0.9h-5.2c-1.8,0-3.4,1.5-3.4,3.4v40.1c0,1.8,1.5,3.4,3.4,3.4h23.4
			c0.5,0,0.9-0.4,0.9-0.9S43.8,69.1,43.3,69.1z"/>
		<path class="st2" d="M37.6,53c0.4-0.7,0.3-1.6-0.1-2.3l-6.4-9.5c-0.4-0.6-1.1-1-1.9-1s-1.5,0.4-1.9,1l-6.4,9.5
			c-0.5,0.7-0.5,1.6-0.1,2.3c0.4,0.7,1.2,1.2,2,1.2h12.9C36.5,54.2,37.2,53.7,37.6,53L37.6,53z M22.3,52.1c0-0.1-0.1-0.3,0-0.5
			l6.4-9.5c0.1-0.2,0.3-0.2,0.4-0.2s0.3,0,0.4,0.2l6.4,9.5c0.1,0.2,0.1,0.4,0,0.5c0,0.1-0.2,0.2-0.4,0.2H22.7
			C22.5,52.4,22.4,52.2,22.3,52.1z"/>
		<path class="st3" d="M42.6,43.6h7.8c0.5,0,0.9-0.4,0.9-0.9s-0.4-0.9-0.9-0.9h-7.8c-0.5,0-0.9,0.4-0.9,0.9S42.1,43.6,42.6,43.6z"/>
		<path class="st3" d="M42.6,48.7H47c0.5,0,0.9-0.4,0.9-0.9s-0.4-0.9-0.9-0.9h-4.4c-0.5,0-0.9,0.4-0.9,0.9S42.1,48.7,42.6,48.7
			L42.6,48.7z"/>
		<path class="st3" d="M73.6,46.9H50.9c-0.5,0-0.9,0.4-0.9,0.9c0,0.5,0.4,0.9,0.9,0.9h22.7c0.5,0,0.9-0.4,0.9-0.9
			S74.1,46.9,73.6,46.9L73.6,46.9z"/>
		<path class="st3" d="M42.6,52.6h17.1c0.5,0,0.9-0.4,0.9-0.9s-0.4-0.9-0.9-0.9H42.6c-0.5,0-0.9,0.4-0.9,0.9S42.1,52.6,42.6,52.6z"
			/>
		<path class="st3" d="M67.6,52.6c0.5,0,0.9-0.4,0.9-0.9s-0.4-0.9-0.9-0.9h-3.9c-0.5,0-0.9,0.4-0.9,0.9s0.4,0.9,0.9,0.9H67.6z"/>
		<path class="st3" d="M27.7,60.5h-3.9c-0.5,0-0.9,0.4-0.9,0.9s0.4,0.9,0.9,0.9h3.9c0.5,0,0.9-0.4,0.9-0.9S28.2,60.5,27.7,60.5z"/>
		<path class="st3" d="M27.7,64.4h-3.9c-0.5,0-0.9,0.4-0.9,0.9s0.4,0.9,0.9,0.9h3.9c0.5,0,0.9-0.4,0.9-0.9S28.2,64.4,27.7,64.4z"/>
	</g>
</g>
</svg>
