<?xml version="1.0" encoding="utf-8"?>
<!-- Generator: Adobe Illustrator 25.2.3, SVG Export Plug-In . SVG Version: 6.00 Build 0)  -->
<svg version="1.1" id="Слой_1" xmlns="http://www.w3.org/2000/svg" xmlns:xlink="http://www.w3.org/1999/xlink" x="0px" y="0px"
	 viewBox="0 0 95 95" style="enable-background:new 0 0 95 95;" xml:space="preserve">
<style type="text/css">
	.st0{display:none;}
	.st1{fill:none;stroke:#133F6F;stroke-width:3;stroke-miterlimit:10;}
	.st2{fill:#133F6F;stroke:#133F6F;stroke-miterlimit:10;}
	.st3{fill:#F0AD1C;}
</style>
<g id="Слой_1_1_" class="st0">
	
		<image style="display:inline;overflow:visible;enable-background:new    ;" width="95" height="95" xlink:href="../../../../my files/cog.png" >
	</image>
</g>
<g id="Слой_2_1_">
	<path class="st1" d="M93.6,47.6c0,25.4-20.6,46-46.1,46s-46-20.6-46-46s20.6-46,46-46c7.7,0,15,1.9,21.4,5.2
		c4.8,2.5,9,5.8,12.6,9.7c3.2,3.5,5.9,7.5,7.9,11.9C92.1,34.2,93.6,40.7,93.6,47.6z"/>
</g>
<g>
	<path class="st2" d="M45.3,66.3H22.5c-0.8,0-1.4-0.6-1.4-1.4V41.2c0-0.5-0.4-0.9-0.9-0.9s-0.9,0.4-0.9,0.9v23.7
		c0,1.7,1.4,3.1,3.1,3.1h22.8c0.5,0,0.9-0.4,0.9-0.9C46.1,66.7,45.7,66.3,45.3,66.3z"/>
	<path class="st2" d="M27.1,23.9h-1.3c-0.5,0-0.9,0.4-0.9,0.9s0.4,0.9,0.9,0.9h1.3c0.5,0,0.9-0.4,0.9-0.9S27.5,23.9,27.1,23.9z"/>
	<path class="st2" d="M31.7,23.9h-1.3c-0.5,0-0.9,0.4-0.9,0.9s0.4,0.9,0.9,0.9h1.3c0.5,0,0.9-0.4,0.9-0.9S32.2,23.9,31.7,23.9z"/>
	<path class="st2" d="M36.4,23.9h-1.3c-0.5,0-0.9,0.4-0.9,0.9s0.4,0.9,0.9,0.9h1.3c0.5,0,0.9-0.4,0.9-0.9S36.8,23.9,36.4,23.9z"/>
	<path class="st2" d="M51.1,43.7h11.4c0.5,0,0.9-0.4,0.9-0.9S63,42,62.5,42H51.1c-0.5,0-0.9,0.4-0.9,0.9S50.7,43.7,51.1,43.7z"/>
	<path class="st2" d="M51.1,52.3h11.4c0.5,0,0.9-0.4,0.9-0.9s-0.4-0.9-0.9-0.9H51.1c-0.5,0-0.9,0.4-0.9,0.9S50.7,52.3,51.1,52.3z"/>
	<path class="st2" d="M51.1,48h11.4c0.5,0,0.9-0.4,0.9-0.9s-0.4-0.9-0.9-0.9H51.1c-0.5,0-0.9,0.4-0.9,0.9S50.7,48,51.1,48z"/>
	<path class="st2" d="M51.1,34.9h11.4c0.5,0,0.9-0.4,0.9-0.9s-0.4-0.9-0.9-0.9H51.1c-0.5,0-0.9,0.4-0.9,0.9S50.7,34.9,51.1,34.9z"/>
	<path class="st2" d="M51.1,39.2h11.4c0.5,0,0.9-0.4,0.9-0.9s-0.4-0.9-0.9-0.9H51.1c-0.5,0-0.9,0.4-0.9,0.9S50.7,39.2,51.1,39.2z"/>
	<path class="st2" d="M75.7,54.7h-6V22.5c0-1.7-1.4-3.1-3.1-3.1h-44c-1.7,0-3.1,1.4-3.1,3.1v13.7c0,0.5,0.4,0.9,0.9,0.9
		s0.9-0.4,0.9-0.9v-6.1h46.9v24.5h-17c-1.1,0-2,0.9-2,2v19c0,1.1,0.9,2,2,2H76c1.1,0,2-0.9,2-2v-19C77.7,55.6,76.8,54.7,75.7,54.7z
		 M21.1,28.5v-5.9c0-0.8,0.6-1.4,1.4-1.4h44c0.8,0,1.4,0.6,1.4,1.4v5.9H21.1z M75.9,75.7c0,0.2-0.1,0.3-0.3,0.3H50.9
		c-0.2,0-0.3-0.1-0.3-0.3v-19c0-0.2,0.1-0.3,0.3-0.3h24.8c0.2,0,0.3,0.1,0.3,0.3L75.9,75.7L75.9,75.7z"/>
	<path class="st2" d="M45,33.1h-0.6h-8.6h-6.5h-1.7H27c-1,0-1.9,0.7-1.9,1.5v9.9c0,0.8,0.8,1.5,1.9,1.5h18c1,0,1.9-0.7,1.9-1.5v-9.9
		C46.8,33.8,46,33.1,45,33.1L45,33.1z M45.6,44.5c0,0.1-0.1,0.1-0.2,0.1H26.5c-0.1,0-0.2-0.1-0.2-0.1v-9.9c0-0.1,0.1-0.1,0.2-0.1
		h18.9c0.1,0,0.2,0.1,0.2,0.1S45.6,44.5,45.6,44.5z"/>
	<path class="st2" d="M45,49.1h-0.6h-8.6h-6.5h-1.7H27c-1,0-1.9,0.7-1.9,1.5v9.9c0,0.8,0.8,1.5,1.9,1.5h18c1,0,1.9-0.7,1.9-1.5v-9.9
		C46.8,49.7,46,49.1,45,49.1L45,49.1z M45.6,60.5c0,0.1-0.1,0.1-0.2,0.1H26.5c-0.1,0-0.2-0.1-0.2-0.1v-9.9c0-0.1,0.1-0.1,0.2-0.1
		h18.9c0.1,0,0.2,0.1,0.2,0.1S45.6,60.5,45.6,60.5z"/>
	<path class="st3" d="M67.2,64.4l-6.1-3.1c-0.6-0.3-1.3-0.3-1.9,0.1c-0.6,0.4-1,1-1,1.7v6.2c0,0.7,0.4,1.3,1,1.7
		c0.3,0.2,0.7,0.3,1,0.3s0.6-0.1,0.9-0.2l6.1-3.1c0.7-0.3,1.1-1,1.1-1.8S67.9,64.8,67.2,64.4L67.2,64.4z M66.4,66.5l-6.1,3.1
		c-0.1,0.1-0.2,0-0.3,0s-0.1-0.1-0.1-0.2v-6.2c0-0.1,0.1-0.2,0.1-0.2h0.1h0.1l6.1,3.1C66.4,66.2,66.5,66.3,66.4,66.5
		C66.6,66.3,66.6,66.4,66.4,66.5L66.4,66.5z"/>
</g>
</svg>
