<?xml version="1.0" encoding="utf-8"?>
<!-- Generator: Adobe Illustrator 25.2.3, SVG Export Plug-In . SVG Version: 6.00 Build 0)  -->
<svg version="1.1" xmlns="http://www.w3.org/2000/svg" xmlns:xlink="http://www.w3.org/1999/xlink" x="0px" y="0px"
	 viewBox="0 0 95 95" style="enable-background:new 0 0 95 95;" xml:space="preserve">
<style type="text/css">
	.st0{display:none;}
	.st1{fill:none;stroke:#133F6F;stroke-width:3;stroke-miterlimit:10;}
	.st2{fill:#133F6F;stroke:#133F6F;stroke-miterlimit:10;}
	.st3{fill:#F0AD1C;}
</style>
<g id="Слой_1">
	<g id="Слой_1_1_" class="st0">
		
			<image style="display:inline;overflow:visible;enable-background:new    ;" width="95" height="95" xlink:href="../../../../my files/cog.png" >
		</image>
	</g>
	<g id="Слой_2_1_">
		<path class="st1" d="M93.6,47.6c0,25.4-20.6,46-46.1,46s-46-20.6-46-46s20.6-46,46-46c7.7,0,15,1.9,21.4,5.2
			c4.8,2.5,9,5.8,12.6,9.7c3.2,3.5,5.9,7.5,7.9,11.9C92.1,34.2,93.6,40.7,93.6,47.6z"/>
	</g>
</g>
<g id="Слой_2">
	<g>
		<path class="st2" d="M70.1,61.7c-0.5,0-0.9,0.4-0.9,0.9v12.1c0,1.6-1.3,2.8-2.8,2.8H51.1c-0.5,0-0.9,0.4-0.9,0.9s0.4,0.9,0.9,0.9
			h15.3c2.6,0,4.7-2.1,4.7-4.7V62.6C71,62.1,70.6,61.7,70.1,61.7L70.1,61.7z"/>
		<path class="st2" d="M66.4,16.7H37c-2.6,0-4.7,2.1-4.7,4.7v32.5c0,0.5,0.4,0.9,0.9,0.9s0.9-0.4,0.9-0.9V21.3
			c0-1.6,1.3-2.8,2.8-2.8h4.9l0.9,2.5c0.4,1.3,1.6,2.1,3,2.1h12c1.3,0,2.5-0.9,3-2.1l0.9-2.5h4.9c1.6,0,2.8,1.3,2.8,2.8v37.3
			c0,0.5,0.4,0.9,0.9,0.9c0.5,0,0.9-0.4,0.9-0.9V21.3C71,18.8,68.9,16.7,66.4,16.7z M58.9,20.4c-0.2,0.5-0.7,0.9-1.2,0.9h-12
			c-0.6,0-1.1-0.4-1.2-0.9l-0.6-1.9h15.8L58.9,20.4z"/>
		<path class="st2" d="M45.7,57.4h-1.8v-0.3c0-0.5-0.4-0.9-0.9-0.9s-0.9,0.4-0.9,0.9v0.3h-2.4v-0.3c0-0.5-0.4-0.9-0.9-0.9
			s-0.9,0.4-0.9,0.9v0.3h-2.4v-0.3c0-0.5-0.4-0.9-0.9-0.9s-0.9,0.4-0.9,0.9v0.3h-2.4v-0.3c0-0.5-0.4-0.9-0.9-0.9s-0.9,0.4-0.9,0.9
			v0.3h-2.4v-0.3c0-0.5-0.4-0.9-0.9-0.9S25,56.6,25,57.1v0.3h-1.8c-1.6,0-3,1.3-3,3v16c0,1.6,1.3,3,3,3h22.5c1.6,0,3-1.3,3-3v-3.1
			c0-0.5-0.4-0.9-0.9-0.9s-0.9,0.4-0.9,0.9v3.1c0,0.6-0.5,1.1-1.1,1.1H23.3c-0.6,0-1.1-0.5-1.1-1.1V64.2h24.8v5.1
			c0,0.5,0.4,0.9,0.9,0.9s0.9-0.4,0.9-0.9v-8.9C48.7,58.7,47.4,57.4,45.7,57.4L45.7,57.4z M22.1,62.3v-2c0-0.6,0.5-1.1,1.1-1.1H25
			v0.6c0,0.5,0.4,0.9,0.9,0.9s0.9-0.4,0.9-0.9v-0.6h2.4v0.6c0,0.5,0.4,0.9,0.9,0.9c0.5,0,0.9-0.4,0.9-0.9v-0.6h2.4v0.6
			c0,0.5,0.4,0.9,0.9,0.9s0.9-0.4,0.9-0.9v-0.6h2.4v0.6c0,0.5,0.4,0.9,0.9,0.9c0.5,0,0.9-0.4,0.9-0.9v-0.6h2.4v0.6
			c0,0.5,0.4,0.9,0.9,0.9s0.9-0.4,0.9-0.9v-0.6h1.8c0.6,0,1.1,0.5,1.1,1.1v2H22.1z"/>
		<path class="st2" d="M27.1,66.2h-0.6c-0.5,0-0.9,0.4-0.9,0.9c0,0.5,0.4,0.9,0.9,0.9h0.6c0.5,0,0.9-0.4,0.9-0.9
			C28,66.6,27.6,66.2,27.1,66.2z"/>
		<path class="st2" d="M32.2,66.2h-0.6c-0.5,0-0.9,0.4-0.9,0.9c0,0.5,0.4,0.9,0.9,0.9h0.6c0.5,0,0.9-0.4,0.9-0.9
			C33.1,66.6,32.7,66.2,32.2,66.2z"/>
		<path class="st2" d="M37.4,66.2h-0.6c-0.5,0-0.9,0.4-0.9,0.9c0,0.5,0.4,0.9,0.9,0.9h0.6c0.5,0,0.9-0.4,0.9-0.9
			C38.3,66.6,37.9,66.2,37.4,66.2z"/>
		<path class="st2" d="M42.5,66.2h-0.6c-0.5,0-0.9,0.4-0.9,0.9c0,0.5,0.4,0.9,0.9,0.9h0.6c0.5,0,0.9-0.4,0.9-0.9
			C43.4,66.6,43,66.2,42.5,66.2z"/>
		<path class="st2" d="M27.1,69.7h-0.6c-0.5,0-0.9,0.4-0.9,0.9s0.4,0.9,0.9,0.9h0.6c0.5,0,0.9-0.4,0.9-0.9S27.6,69.7,27.1,69.7z"/>
		<path class="st2" d="M32.2,69.7h-0.6c-0.5,0-0.9,0.4-0.9,0.9s0.4,0.9,0.9,0.9h0.6c0.5,0,0.9-0.4,0.9-0.9S32.7,69.7,32.2,69.7z"/>
		<path class="st2" d="M37.4,69.7h-0.6c-0.5,0-0.9,0.4-0.9,0.9s0.4,0.9,0.9,0.9h0.6c0.5,0,0.9-0.4,0.9-0.9S37.9,69.7,37.4,69.7z"/>
		<path class="st2" d="M42.5,69.7h-0.6c-0.5,0-0.9,0.4-0.9,0.9s0.4,0.9,0.9,0.9h0.6c0.5,0,0.9-0.4,0.9-0.9S43,69.7,42.5,69.7z"/>
		<path class="st2" d="M27.1,73.2h-0.6c-0.5,0-0.9,0.4-0.9,0.9c0,0.5,0.4,0.9,0.9,0.9h0.6c0.5,0,0.9-0.4,0.9-0.9
			C28,73.6,27.6,73.2,27.1,73.2z"/>
		<path class="st2" d="M32.2,73.2h-0.6c-0.5,0-0.9,0.4-0.9,0.9c0,0.5,0.4,0.9,0.9,0.9h0.6c0.5,0,0.9-0.4,0.9-0.9
			C33.1,73.6,32.7,73.2,32.2,73.2z"/>
		<path class="st2" d="M37.4,73.2h-0.6c-0.5,0-0.9,0.4-0.9,0.9c0,0.5,0.4,0.9,0.9,0.9h0.6c0.5,0,0.9-0.4,0.9-0.9
			C38.3,73.6,37.9,73.2,37.4,73.2z"/>
		<path class="st2" d="M42.5,73.2h-0.6c-0.5,0-0.9,0.4-0.9,0.9c0,0.5,0.4,0.9,0.9,0.9h0.6c0.5,0,0.9-0.4,0.9-0.9
			C43.4,73.6,43,73.2,42.5,73.2z"/>
		<path class="st3" d="M43.9,46.1C44,46,44,45.8,44,45.7l0.6-7.2c0-0.3,0.1-0.6,0.1-0.8c0.1-0.5-0.2-1-0.7-1.1
			c-0.5-0.1-1,0.2-1.1,0.7c-0.1,0.4-0.1,0.7-0.1,1.1l-0.5,6.9l-0.9,1.3c-0.5,0.7-0.6,1.5-0.2,2.3c0.4,0.7,1.1,1.2,1.9,1.2h4v0.2
			c0,2.5,2.1,4.6,4.6,4.6c2.5,0,4.6-2.1,4.6-4.6V50h4c0.8,0,1.6-0.5,1.9-1.2s0.3-1.6-0.2-2.3l-0.9-1.3l-0.5-6.9
			c-0.2-2.2-1.2-4.3-2.8-5.9c-1.7-1.5-3.8-2.4-6.1-2.4c-2.7,0-5.1,1.2-6.8,3.2c-0.3,0.4-0.3,1,0.1,1.3c0.4,0.3,1,0.3,1.3-0.1
			c1.4-1.6,3.3-2.5,5.4-2.5c3.7,0,6.8,2.9,7.1,6.5l0.6,7.2c0,0.2,0.1,0.3,0.2,0.5l1.1,1.5c0.1,0.1,0.1,0.3,0,0.4
			c0,0.1-0.1,0.2-0.3,0.2H43c-0.2,0-0.3-0.1-0.3-0.2c0-0.1-0.1-0.2,0-0.4L43.9,46.1z M54.4,50.2c0,1.5-1.2,2.8-2.8,2.8
			c-1.5,0-2.8-1.2-2.8-2.8V50h5.5L54.4,50.2z"/>
		<path class="st2" d="M66.1,32.7c0.5,0,0.9-0.4,0.9-0.9v-0.3c0-3.6-2.9-6.6-6.6-6.6c-0.5,0-0.9,0.4-0.9,0.9c0,0.5,0.4,0.9,0.9,0.9
			c2.6,0,4.7,2.1,4.7,4.7v0.3C65.2,32.3,65.6,32.7,66.1,32.7z"/>
		<path class="st2" d="M60.5,30.5c0.6,0,1.1,0.5,1.1,1.1v0.3c0,0.5,0.4,0.9,0.9,0.9s0.9-0.4,0.9-0.9v-0.3c0-1.6-1.3-2.9-2.9-2.9
			c-0.5,0-0.9,0.4-0.9,0.9S59.9,30.5,60.5,30.5z"/>
		<path class="st2" d="M42.9,25c-3.6,0-6.6,2.9-6.6,6.6v0.3c0,0.5,0.4,0.9,0.9,0.9s0.9-0.4,0.9-0.9v-0.3c0-2.6,2.1-4.7,4.7-4.7
			c0.5,0,0.9-0.4,0.9-0.9C43.8,25.4,43.4,25,42.9,25L42.9,25z"/>
		<path class="st2" d="M42.9,28.7c-1.6,0-2.9,1.3-2.9,2.9v0.3c0,0.5,0.4,0.9,0.9,0.9s0.9-0.4,0.9-0.9v-0.3c0-0.6,0.5-1.1,1.1-1.1
			c0.5,0,0.9-0.4,0.9-0.9S43.4,28.7,42.9,28.7z"/>
	</g>
</g>
</svg>
