<?xml version="1.0" encoding="utf-8"?>
<!-- Generator: Adobe Illustrator 25.2.3, SVG Export Plug-In . SVG Version: 6.00 Build 0)  -->
<svg version="1.1" id="Слой_1" xmlns="http://www.w3.org/2000/svg" xmlns:xlink="http://www.w3.org/1999/xlink" x="0px" y="0px"
	 viewBox="0 0 95 95" style="enable-background:new 0 0 95 95;" xml:space="preserve">
<style type="text/css">
	.st0{display:none;}
	.st1{fill:none;stroke:#133F6F;stroke-width:3;stroke-miterlimit:10;}
	.st2{fill:#F0AD1C;}
	.st3{fill:#133F6F;stroke:#133F6F;stroke-miterlimit:10;}
</style>
<g id="Слой_1_1_" class="st0">
	<image style="display:inline;overflow:visible;enable-background:new    ;" width="95" height="95" xlink:href="cog.png" >
	</image>
</g>
<g id="Слой_2_1_">
	<path class="st1" d="M93.6,47.5c0,25.4-20.6,46.1-46.1,46.1S1.5,73,1.5,47.5s20.6-46,46-46c7.7,0,15,1.9,21.4,5.2
		c4.8,2.5,9,5.8,12.6,9.7c3.2,3.5,5.9,7.5,7.9,11.9C92.1,34.2,93.6,40.7,93.6,47.5z"/>
</g>
<path class="st2" d="M58.5,38c-0.2-0.4-0.5-0.6-0.9-0.6s-0.7,0.2-0.9,0.6l-2.5,5.4c-0.5,1.2,1.3,2,1.8,0.8l0.1-0.2h3l0.1,0.2
	c0.2,0.5,0.8,0.7,1.3,0.5s0.7-0.8,0.5-1.3L58.5,38z M57,42.1l0.6-1.3l0.6,1.3H57z"/>
<path class="st2" d="M65.5,37.4h-1.8c-0.5,0-1,0.4-1,1v5.4c0,0.5,0.4,1,1,1h1.8c2,0,3.7-1.7,3.7-3.7S67.6,37.4,65.5,37.4z
	 M65.5,42.8h-0.8v-3.5h0.8c1,0,1.7,0.8,1.7,1.7S66.5,42.8,65.5,42.8z"/>
<path class="st3" d="M73,27.4c0-0.5-0.4-1-1-1H21.6c-1.3,0-1.3,2,0,2H72C72.6,28.4,73,27.9,73,27.4z"/>
<path class="st3" d="M46.2,31.9H21.6c-1.3,0-1.3,2,0,2h24.7C47.5,33.8,47.5,31.9,46.2,31.9z"/>
<path class="st3" d="M46.2,37.3H21.6c-1.3,0-1.3,2,0,2h24.7C47.5,39.3,47.5,37.3,46.2,37.3z"/>
<path class="st3" d="M46.2,42.8H21.6c-1.3,0-1.3,2,0,2h24.7C47.5,44.8,47.5,42.8,46.2,42.8z"/>
<path class="st3" d="M46.2,48.3H21.6c-1.3,0-1.3,2,0,2h24.7C47.5,50.3,47.5,48.3,46.2,48.3z"/>
<path class="st3" d="M81.7,54.2l-2.2-1.6V24.5c0-3-2.5-5.5-5.5-5.5H29.1c-1.3,0-1.3,2,0,2H74c1.9,0,3.5,1.6,3.5,3.5v26.6L73,47.8
	c0-0.1,0-0.1,0-0.2V32.9c0-0.5-0.4-1-1-1H51.4c-0.5,0-1,0.4-1,1v16.4c0,0.5,0.4,1,1,1h18.1v5H16.7V24.5c0-1.9,1.6-3.5,3.5-3.5h3.3
	c1.3,0,1.3-2,0-2h-3.3c-3,0-5.5,2.5-5.5,5.5v38.2c0,3,2.5,5.5,5.5,5.5h20.3v7.4H35c-4.3,0-4.3,6.6,0,6.6h17.5c1.3,0,1.3-2,0-2H35.1
	c-1.7,0-1.7-2.7,0-2.7h24.1c1.7,0,1.7,2.7,0,2.7h-0.7c-1.3,0-1.3,2,0,2h0.7c4.3,0,4.3-6.6,0-6.6h-5.3v-7.4H74c3,0,5.5-2.5,5.5-5.5
	v-5.8h1.4C82.3,56.9,82.8,55,81.7,54.2z M75.1,54.9c-0.5,0-0.9,0.3-1.2,0.7L71.4,59v-9.9l7.9,5.8C79.3,54.9,75.1,54.9,75.1,54.9z
	 M52.4,48.3V33.8H71v12.7c-0.3,0-0.5,0-0.8,0.2c-0.5,0.3-0.8,0.8-0.8,1.3v0.2L52.4,48.3z M51.8,75.6h-9.3v-7.4h9.3V75.6z M77.5,62.7
	c0,1.9-1.6,3.5-3.5,3.5H20.2c-1.9,0-3.5-1.6-3.5-3.5v-5.4h52.8v3.2c0,1.4,1.9,2,2.7,0.8l3.2-4.4h2.2L77.5,62.7L77.5,62.7z"/>
</svg>
