<?xml version="1.0" encoding="utf-8"?>
<!-- Generator: Adobe Illustrator 25.2.3, SVG Export Plug-In . SVG Version: 6.00 Build 0)  -->
<svg version="1.1" id="Слой_1" xmlns="http://www.w3.org/2000/svg" xmlns:xlink="http://www.w3.org/1999/xlink" x="0px" y="0px"
	 viewBox="0 0 24 24" style="enable-background:new 0 0 24 24;" xml:space="preserve">
<style type="text/css">
	.st0{fill:#FFFFFF;}
</style>
<path class="st0" d="M12,8c-2.2,0-4,1.8-4,4c0,2.2,1.8,4,4,4c2.2,0,4-1.8,4-4C16,9.8,14.2,8,12,8z M24,12c0-1.7,0-3.3-0.1-5
	c-0.1-1.9-0.5-3.6-1.9-5c-1.4-1.4-3.1-1.8-5-1.9C15.3,0,13.7,0,12,0c-1.7,0-3.3,0-5,0.1C5.1,0.2,3.4,0.6,2,2C0.6,3.4,0.2,5.1,0.1,7
	C0,8.7,0,10.3,0,12s0,3.3,0.1,5c0.1,1.9,0.5,3.6,1.9,5c1.4,1.4,3.1,1.8,5,1.9C8.7,24,10.3,24,12,24c1.7,0,3.3,0,5-0.1
	c1.9-0.1,3.6-0.5,5-1.9c1.4-1.4,1.8-3.1,1.9-5C24,15.3,24,13.7,24,12z M12,18.2c-3.4,0-6.2-2.7-6.2-6.2S8.6,5.8,12,5.8
	c3.4,0,6.2,2.7,6.2,6.2S15.4,18.2,12,18.2z M18.4,7C17.6,7,17,6.4,17,5.6s0.6-1.4,1.4-1.4s1.4,0.6,1.4,1.4c0,0.2,0,0.4-0.1,0.6
	c-0.1,0.2-0.2,0.3-0.3,0.5c-0.1,0.1-0.3,0.2-0.5,0.3C18.8,7,18.6,7,18.4,7z"/>
</svg>
