<?xml version="1.0" encoding="utf-8"?>
<!-- Generator: Adobe Illustrator 25.2.3, SVG Export Plug-In . SVG Version: 6.00 Build 0)  -->
<svg version="1.1" id="Слой_1" xmlns="http://www.w3.org/2000/svg" xmlns:xlink="http://www.w3.org/1999/xlink" x="0px" y="0px"
	 viewBox="0 0 24 24" style="enable-background:new 0 0 24 24;" xml:space="preserve">
<style type="text/css">
	.st0{fill-rule:evenodd;clip-rule:evenodd;fill:#FFFFFF;}
</style>
<path class="st0" d="M0,2c0-0.5,0.2-1,0.6-1.4C1,0.2,1.5,0,2,0h20c0.3,0,0.5,0.1,0.8,0.2c0.2,0.1,0.5,0.2,0.7,0.4
	c0.2,0.2,0.3,0.4,0.4,0.7C23.9,1.5,24,1.7,24,2v20c0,0.3-0.1,0.5-0.2,0.8c-0.1,0.2-0.2,0.5-0.4,0.7c-0.2,0.2-0.4,0.3-0.7,0.4
	C22.5,23.9,22.3,24,22,24H2c-0.3,0-0.5-0.1-0.8-0.2c-0.2-0.1-0.5-0.2-0.7-0.4S0.3,23,0.2,22.8C0.1,22.5,0,22.3,0,22V2z M9.5,9.2h3.2
	v1.6C13.2,9.8,14.4,9,16.2,9c3.5,0,4.3,1.9,4.3,5.3v6.4H17v-5.6c0-2-0.5-3.1-1.7-3.1c-1.7,0-2.3,1.2-2.3,3.1v5.6H9.5V9.2z M3.5,20.5
	H7V9H3.5V20.5L3.5,20.5z M7.5,5.2c0,0.3,0,0.6-0.2,0.9C7.2,6.4,7.1,6.7,6.9,6.9C6.6,7.1,6.4,7.3,6.1,7.4C5.8,7.5,5.5,7.5,5.2,7.5
	S4.7,7.5,4.4,7.4C4.1,7.3,3.9,7.1,3.6,6.9C3.4,6.7,3.3,6.4,3.2,6.1S3,5.5,3,5.2c0-0.6,0.3-1.1,0.7-1.6C4.1,3.3,4.7,3,5.2,3
	s1.2,0.2,1.6,0.6C7.2,4.1,7.5,4.7,7.5,5.2z"/>
</svg>
