<?xml version="1.0" encoding="UTF-8"?><svg id="_Слой_2" xmlns="http://www.w3.org/2000/svg" viewBox="0 0 76.47 76.47"><defs><style>.cls-1{stroke-width:0px;}</style></defs><g id="_Слой_1-2"><path class="cls-1" d="m76.47,67.54c0,2.38-.93,4.63-2.61,6.31-1.69,1.69-3.93,2.62-6.32,2.62s-4.63-.93-6.31-2.62l-22.99-22.99-22.98,22.99c-1.69,1.69-3.93,2.62-6.32,2.62s-4.63-.93-6.31-2.62C.94,72.17,0,69.93,0,67.54s.93-4.63,2.62-6.31l22.98-22.99L2.62,15.25c-1.69-1.69-2.62-3.93-2.62-6.32S.93,4.3,2.61,2.62C4.3.93,6.54,0,8.93,0s4.63.93,6.31,2.62l22.99,22.99L61.21,2.62c1.69-1.69,3.93-2.62,6.32-2.62s4.63.93,6.31,2.62c1.69,1.68,2.62,3.93,2.62,6.31s-.93,4.63-2.62,6.31l-22.98,22.99,22.99,22.99c1.69,1.69,2.62,3.93,2.62,6.32Z"/></g></svg>